<?xml version="1.0" standalone="no"?>
<!DOCTYPE svg PUBLIC "-//W3C//DTD SVG 20010904//EN"
 "http://www.w3.org/TR/2001/REC-SVG-20010904/DTD/svg10.dtd">
<svg version="1.0" xmlns="http://www.w3.org/2000/svg"
 width="225.000000pt" height="225.000000pt" viewBox="0 0 225.000000 225.000000"
 preserveAspectRatio="xMidYMid meet">
<metadata>
Created by potrace 1.11, written by Peter Selinger 2001-2013
</metadata>
<g transform="translate(0.000000,225.000000) scale(0.100000,-0.100000)"
fill="#000000" stroke="none">
<path d="M1030 2241 c-67 -14 -100 -44 -100 -89 0 -31 38 -71 81 -83 36 -11
39 -15 39 -49 0 -37 -1 -38 -47 -45 -121 -17 -252 -70 -366 -147 l-59 -40 -28
27 -27 26 18 37 c33 63 22 110 -29 131 -43 18 -90 -5 -172 -85 -97 -93 -122
-155 -82 -204 22 -27 75 -29 122 -5 32 16 33 16 60 -10 l28 -27 -48 -74 c-62
-95 -105 -199 -126 -307 l-17 -87 -42 0 c-40 0 -42 2 -54 39 -27 90 -116 108
-156 31 -37 -72 -27 -270 17 -317 47 -50 125 -13 143 67 6 28 10 30 50 30 43
0 43 0 50 -42 21 -135 79 -281 153 -381 l35 -49 -36 -36 -36 -36 -36 17 c-51
24 -97 22 -123 -6 -43 -46 -18 -109 80 -203 100 -97 149 -114 193 -69 29 28
31 59 9 115 l-16 41 35 34 35 34 82 -54 c90 -59 216 -109 321 -127 l69 -12 0
-46 c0 -46 -1 -47 -39 -59 -45 -13 -81 -52 -81 -87 0 -12 10 -35 23 -49 47
-56 285 -59 343 -4 51 48 15 126 -66 144 -30 7 -31 9 -28 52 l3 46 104 23
c112 25 237 80 312 138 l46 35 32 -33 c33 -34 33 -34 16 -66 -51 -98 13 -170
110 -124 45 21 162 144 181 190 19 45 6 85 -32 103 -35 15 -54 14 -96 -8 l-37
-18 -31 32 -30 31 54 81 c64 96 109 208 127 316 l13 77 42 0 c39 0 43 -2 49
-30 18 -80 96 -117 143 -67 44 47 54 245 17 317 -40 77 -129 59 -156 -31 -12
-37 -14 -39 -54 -39 l-41 0 -12 69 c-18 105 -68 231 -128 322 l-54 83 25 25
c24 25 25 25 60 8 51 -24 91 -22 120 8 14 13 25 31 25 40 0 33 -29 82 -81 139
-62 69 -132 116 -169 116 -59 0 -89 -79 -55 -144 15 -28 14 -31 -11 -57 l-26
-27 -47 33 c-99 71 -254 134 -368 150 l-53 7 0 38 c0 35 3 39 30 45 103 23
123 132 31 167 -34 13 -187 19 -231 9z"/>
</g>
</svg>
